<?xml version="1.0" encoding="UTF-8" standalone="no"?>
<!DOCTYPE svg PUBLIC "-//W3C//DTD SVG 1.1//EN"
 "http://www.w3.org/Graphics/SVG/1.1/DTD/svg11.dtd">
<!-- Generated by graphviz version 2.44.1 (20200629.0846)
 -->
<!-- Title: dependencies Pages: 1 -->
<svg width="724pt" height="222pt"
 viewBox="0.00 0.00 724.00 222.00" xmlns="http://www.w3.org/2000/svg" xmlns:xlink="http://www.w3.org/1999/xlink">
<g id="graph0" class="graph" transform="scale(1 1) rotate(0) translate(4 218)">
<title>dependencies</title>
<polygon fill="white" stroke="transparent" points="-4,4 -4,-218 720,-218 720,4 -4,4"/>
<text text-anchor="start" x="337.01" y="-42.4" font-family="sans-serif" font-weight="bold" font-size="14.00">Legend</text>
<polygon fill="#ffffb3" stroke="transparent" points="124,-10 124,-30 144,-30 144,-10 124,-10"/>
<text text-anchor="start" x="147.63" y="-15.4" font-family="sans-serif" font-size="14.00"> &#160;Declarations</text>
<polygon fill="#8dd3c7" stroke="transparent" points="237,-10 237,-30 257,-30 257,-10 237,-10"/>
<text text-anchor="start" x="260.73" y="-15.4" font-family="sans-serif" font-size="14.00"> &#160;Module</text>
<polygon fill="#80b1d3" stroke="transparent" points="323,-10 323,-30 343,-30 343,-10 323,-10"/>
<text text-anchor="start" x="346.78" y="-15.4" font-family="sans-serif" font-size="14.00"> &#160;Bootstrap</text>
<polygon fill="#fdb462" stroke="transparent" points="420,-10 420,-30 440,-30 440,-10 420,-10"/>
<text text-anchor="start" x="443.67" y="-15.4" font-family="sans-serif" font-size="14.00"> &#160;Providers</text>
<polygon fill="#fb8072" stroke="transparent" points="516,-10 516,-30 536,-30 536,-10 516,-10"/>
<text text-anchor="start" x="539.73" y="-15.4" font-family="sans-serif" font-size="14.00"> &#160;Exports</text>
<g id="clust1" class="cluster">
<title>cluster_AppModule</title>
<polygon fill="none" stroke="black" stroke-dasharray="1,5" points="8,-70 8,-198 406,-198 406,-70 8,-70"/>
</g>
<g id="clust3" class="cluster">
<title>cluster_AppModule_imports</title>
<polygon fill="none" stroke="black" points="154,-78 154,-130 398,-130 398,-78 154,-78"/>
</g>
<g id="clust6" class="cluster">
<title>cluster_AppModule_providers</title>
<polygon fill="none" stroke="black" points="16,-78 16,-130 146,-130 146,-78 16,-78"/>
</g>
<g id="clust13" class="cluster">
<title>cluster_LoggerModule</title>
<polygon fill="none" stroke="black" stroke-dasharray="1,5" points="414,-138 414,-206 708,-206 708,-138 414,-138"/>
</g>
<g id="clust16" class="cluster">
<title>cluster_LoggerModule_exports</title>
<polygon fill="none" stroke="black" points="582,-146 582,-198 700,-198 700,-146 582,-146"/>
</g>
<g id="clust18" class="cluster">
<title>cluster_LoggerModule_providers</title>
<polygon fill="none" stroke="black" points="422,-146 422,-198 574,-198 574,-146 422,-146"/>
</g>
<!-- DatabaseModule -->
<g id="node1" class="node">
<title>DatabaseModule</title>
<polygon fill="#8dd3c7" stroke="black" points="272.35,-122 269.35,-126 248.35,-126 245.35,-122 161.65,-122 161.65,-86 272.35,-86 272.35,-122"/>
<text text-anchor="middle" x="217" y="-99.8" font-family="Times,serif" font-size="14.00">DatabaseModule</text>
</g>
<!-- AppModule -->
<g id="node3" class="node">
<title>AppModule</title>
<polygon fill="#8dd3c7" stroke="black" points="258.66,-190 255.66,-194 234.66,-194 231.66,-190 175.34,-190 175.34,-154 258.66,-154 258.66,-190"/>
<text text-anchor="middle" x="217" y="-167.8" font-family="Times,serif" font-size="14.00">AppModule</text>
</g>
<!-- DatabaseModule&#45;&gt;AppModule -->
<g id="edge1" class="edge">
<title>DatabaseModule&#45;&gt;AppModule</title>
<path fill="none" stroke="black" d="M217,-122.22C217,-122.22 217,-143.73 217,-143.73"/>
<polygon fill="black" stroke="black" points="213.5,-143.73 217,-153.73 220.5,-143.73 213.5,-143.73"/>
</g>
<!-- LoggerModule -->
<g id="node2" class="node">
<title>LoggerModule</title>
<polygon fill="#8dd3c7" stroke="black" points="389.98,-122 386.98,-126 365.98,-126 362.98,-122 290.02,-122 290.02,-86 389.98,-86 389.98,-122"/>
<text text-anchor="middle" x="340" y="-99.8" font-family="Times,serif" font-size="14.00">LoggerModule</text>
</g>
<!-- LoggerModule&#45;&gt;AppModule -->
<g id="edge2" class="edge">
<title>LoggerModule&#45;&gt;AppModule</title>
<path fill="none" stroke="black" d="M323.34,-122.29C323.34,-144.21 323.34,-178 323.34,-178 323.34,-178 268.72,-178 268.72,-178"/>
<polygon fill="black" stroke="black" points="268.72,-174.5 258.72,-178 268.72,-181.5 268.72,-174.5"/>
</g>
<!-- LoggerService  -->
<g id="node5" class="node">
<title>LoggerService </title>
<polygon fill="#fb8072" stroke="black" points="691.91,-190 590.09,-190 590.09,-154 691.91,-154 691.91,-190"/>
<text text-anchor="middle" x="641" y="-167.8" font-family="Times,serif" font-size="14.00">LoggerService </text>
</g>
<!-- LoggerModule&#45;&gt;LoggerService  -->
<g id="edge4" class="edge">
<title>LoggerModule&#45;&gt;LoggerService </title>
<path fill="none" stroke="black" stroke-dasharray="5,2" d="M390.04,-104C475.63,-104 641,-104 641,-104 641,-104 641,-143.78 641,-143.78"/>
<polygon fill="black" stroke="black" points="637.5,-143.78 641,-153.78 644.5,-143.78 637.5,-143.78"/>
</g>
<!-- AppService -->
<g id="node4" class="node">
<title>AppService</title>
<ellipse fill="#fdb462" stroke="black" cx="81" cy="-104" rx="56.74" ry="18"/>
<text text-anchor="middle" x="81" y="-99.8" font-family="Times,serif" font-size="14.00">AppService</text>
</g>
<!-- AppService&#45;&gt;AppModule -->
<g id="edge3" class="edge">
<title>AppService&#45;&gt;AppModule</title>
<path fill="none" stroke="black" d="M81,-122.22C81,-142.37 81,-172 81,-172 81,-172 165.09,-172 165.09,-172"/>
<polygon fill="black" stroke="black" points="165.09,-175.5 175.09,-172 165.09,-168.5 165.09,-175.5"/>
</g>
<!-- LoggerService -->
<g id="node6" class="node">
<title>LoggerService</title>
<ellipse fill="#fdb462" stroke="black" cx="498" cy="-172" rx="67.76" ry="18"/>
<text text-anchor="middle" x="498" y="-167.8" font-family="Times,serif" font-size="14.00">LoggerService</text>
</g>
<!-- LoggerService&#45;&gt;LoggerModule -->
<g id="edge5" class="edge">
<title>LoggerService&#45;&gt;LoggerModule</title>
<path fill="none" stroke="black" d="M433.95,-166C396.55,-166 356.66,-166 356.66,-166 356.66,-166 356.66,-132.27 356.66,-132.27"/>
<polygon fill="black" stroke="black" points="360.16,-132.27 356.66,-122.27 353.16,-132.27 360.16,-132.27"/>
</g>
</g>
</svg>
